<svg xmlns="http://www.w3.org/2000/svg" xml:space="preserve" viewBox="0 0 1000 1000">
  <path d="M551 387.7c0-28.2-22.9-51-51-51s-51 22.9-51 51 22.9 51 51 51c28.2.1 51-22.8 51-51zM183.5 10c-56.3 0-102 45.7-102 102.1v775.8c0 56.3 45.7 102.1 102.1 102.1h632.9c56.3 0 102.1-45.7 102.1-102.1V112.1C918.5 55.7 872.8 10 816.5 10h-633zM500 112.1c152.3 0 275.6 123.3 275.6 275.6 0 79.4-33.5 151.1-87.4 201.3-27.6-20.8-53.3-41.3-68-56.1-43.9-43.9-114.9-43.9-158.8 0-33.3 33.3-41.2 82.5-24.1 123.3-122.1-28.4-212.9-137.8-212.9-268.5 0-152.3 123.3-275.6 275.6-275.6zM183.5 836.9c0-28.2 22.9-51 51-51 28.2 0 51 22.9 51 51 0 28.2-22.9 51-51 51s-51-22.8-51-51zm335.9-246c12.3-12.3 32-12.3 44.5 0 7.2 7.3 207.9 148.6 231.1 171.9 28.6 28.8 28.6 75.1 0 103.7-28.6 28.6-74.9 28.6-103.7 0-24.5-24.5-165.2-224.6-171.9-231.1-12.3-12.5-12.3-32.3 0-44.5z"/>
</svg>
